<mxfile host="Electron" modified="2024-05-03T07:35:40.939Z" agent="Mozilla/5.0 (Macintosh; Intel Mac OS X 10_15_7) AppleWebKit/537.36 (KHTML, like Gecko) draw.io/24.0.4 Chrome/120.0.6099.109 Electron/28.1.0 Safari/537.36" etag="J3V-MX-g9hI5fMlJXQyq" version="24.0.4" type="device">
  <diagram name="Page-1" id="_nR7e4XgD6fj8UJKNjDj">
    <mxGraphModel dx="3804" dy="-13148" grid="1" gridSize="10" guides="1" tooltips="1" connect="1" arrows="1" fold="1" page="1" pageScale="1" pageWidth="850" pageHeight="1100" math="0" shadow="0">
      <root>
        <mxCell id="0" />
        <mxCell id="1" parent="0" />
        <mxCell id="BASvvJVavqTpIo9RgMH1-2063" value="" style="rounded=1;whiteSpace=wrap;html=1;fillColor=#fad7ac;strokeColor=#b46504;" parent="1" vertex="1">
          <mxGeometry x="-1335.67" y="14871.44" width="1145" height="518.56" as="geometry" />
        </mxCell>
        <mxCell id="BASvvJVavqTpIo9RgMH1-2062" value="" style="rounded=1;whiteSpace=wrap;html=1;fillColor=#bac8d3;strokeColor=#23445d;" parent="1" vertex="1">
          <mxGeometry x="-1335.52" y="14320" width="1145" height="540" as="geometry" />
        </mxCell>
        <mxCell id="BASvvJVavqTpIo9RgMH1-1960" value="&lt;span class=&quot;md-plain md-expand&quot; style=&quot;box-sizing: border-box; caret-color: rgb(51, 51, 51); font-family: &amp;quot;Open Sans&amp;quot;, &amp;quot;Clear Sans&amp;quot;, &amp;quot;Helvetica Neue&amp;quot;, Helvetica, Arial, &amp;quot;Segoe UI Emoji&amp;quot;, sans-serif; font-size: 16px; orphans: 4; white-space-collapse: preserve; text-size-adjust: auto;&quot;&gt;&lt;font color=&quot;#333333&quot;&gt;const&lt;/font&gt;&lt;b style=&quot;&quot;&gt;&lt;font color=&quot;#ff3333&quot;&gt; half *&lt;/font&gt;&lt;/b&gt;&lt;font color=&quot;#333333&quot;&gt;smem_warp_stream_ptr = &amp;amp;smem[0][0] &lt;/font&gt;&lt;/span&gt;&lt;span class=&quot;md-plain&quot; style=&quot;box-sizing: border-box; caret-color: rgb(51, 51, 51); color: rgb(51, 51, 51); font-family: &amp;quot;Open Sans&amp;quot;, &amp;quot;Clear Sans&amp;quot;, &amp;quot;Helvetica Neue&amp;quot;, Helvetica, Arial, &amp;quot;Segoe UI Emoji&amp;quot;, sans-serif; font-size: 16px; orphans: 4; white-space-collapse: preserve; text-size-adjust: auto;&quot;&gt;+ &lt;/span&gt;&lt;div&gt;&lt;span class=&quot;md-plain&quot; style=&quot;box-sizing: border-box; caret-color: rgb(51, 51, 51); color: rgb(51, 51, 51); font-family: &amp;quot;Open Sans&amp;quot;, &amp;quot;Clear Sans&amp;quot;, &amp;quot;Helvetica Neue&amp;quot;, Helvetica, Arial, &amp;quot;Segoe UI Emoji&amp;quot;, sans-serif; font-size: 16px; orphans: 4; white-space-collapse: preserve; text-size-adjust: auto;&quot;&gt;&lt;span style=&quot;white-space: pre;&quot;&gt;&#x9;&lt;/span&gt;&lt;span style=&quot;white-space: pre;&quot;&gt;&#x9;&lt;/span&gt;&lt;span style=&quot;white-space: pre;&quot;&gt;&#x9;&lt;/span&gt;&lt;span style=&quot;white-space: pre;&quot;&gt;&#x9;&lt;/span&gt;&lt;span style=&quot;white-space: pre;&quot;&gt;&#x9;&lt;/span&gt;warp_id * MMA_M * 2 * C_SMEM_STRIDE;&lt;/span&gt;&lt;/div&gt;&lt;div&gt;&lt;span class=&quot;md-plain&quot; style=&quot;box-sizing: border-box; caret-color: rgb(51, 51, 51); color: rgb(51, 51, 51); font-family: &amp;quot;Open Sans&amp;quot;, &amp;quot;Clear Sans&amp;quot;, &amp;quot;Helvetica Neue&amp;quot;, Helvetica, Arial, &amp;quot;Segoe UI Emoji&amp;quot;, sans-serif; font-size: 16px; orphans: 4; white-space-collapse: preserve; text-size-adjust: auto;&quot;&gt;(warp_id=1)&lt;/span&gt;&lt;/div&gt;" style="rounded=1;whiteSpace=wrap;html=1;align=left;" parent="1" vertex="1">
          <mxGeometry x="-1239.36" y="14340" width="494.3" height="60" as="geometry" />
        </mxCell>
        <mxCell id="BASvvJVavqTpIo9RgMH1-1961" value="&lt;font style=&quot;font-size: 17px;&quot;&gt;warp_id=0&lt;/font&gt;" style="rounded=0;whiteSpace=wrap;html=1;" parent="1" vertex="1">
          <mxGeometry x="-1118.0600000000002" y="14504" width="313" height="80" as="geometry" />
        </mxCell>
        <mxCell id="BASvvJVavqTpIo9RgMH1-1968" value="&lt;font style=&quot;font-size: 17px;&quot;&gt;warp_id=1&lt;/font&gt;" style="rounded=0;whiteSpace=wrap;html=1;fillColor=#f8cecc;strokeColor=#b85450;" parent="1" vertex="1">
          <mxGeometry x="-1117.72" y="14584" width="313" height="80" as="geometry" />
        </mxCell>
        <mxCell id="BASvvJVavqTpIo9RgMH1-1969" value="" style="shape=curlyBracket;whiteSpace=wrap;html=1;rounded=1;flipH=1;labelPosition=right;verticalLabelPosition=middle;align=left;verticalAlign=middle;" parent="1" vertex="1">
          <mxGeometry x="-804.7200000000001" y="14584" width="20" height="80" as="geometry" />
        </mxCell>
        <mxCell id="BASvvJVavqTpIo9RgMH1-1970" value="&lt;span style=&quot;color: rgb(51, 51, 51); font-family: &amp;quot;Open Sans&amp;quot;, &amp;quot;Clear Sans&amp;quot;, &amp;quot;Helvetica Neue&amp;quot;, Helvetica, Arial, &amp;quot;Segoe UI Emoji&amp;quot;, sans-serif; font-size: 16px; orphans: 4; text-align: left; caret-color: rgb(51, 51, 51); white-space: pre-wrap;&quot;&gt;2*MMA_M=32&lt;/span&gt;" style="text;html=1;align=center;verticalAlign=middle;resizable=0;points=[];autosize=1;strokeColor=none;fillColor=none;" parent="1" vertex="1">
          <mxGeometry x="-793.2" y="14609" width="130" height="30" as="geometry" />
        </mxCell>
        <mxCell id="BASvvJVavqTpIo9RgMH1-1971" value="" style="shape=curlyBracket;whiteSpace=wrap;html=1;rounded=1;flipH=1;labelPosition=right;verticalLabelPosition=middle;align=left;verticalAlign=middle;rotation=-90;" parent="1" vertex="1">
          <mxGeometry x="-971.2200000000001" y="14340" width="20" height="310" as="geometry" />
        </mxCell>
        <mxCell id="BASvvJVavqTpIo9RgMH1-1972" value="&lt;span style=&quot;color: rgb(51, 51, 51); font-family: &amp;quot;Open Sans&amp;quot;, &amp;quot;Clear Sans&amp;quot;, &amp;quot;Helvetica Neue&amp;quot;, Helvetica, Arial, &amp;quot;Segoe UI Emoji&amp;quot;, sans-serif; font-size: 16px; orphans: 4; text-align: left; caret-color: rgb(51, 51, 51); white-space: pre-wrap;&quot;&gt;128&lt;/span&gt;" style="text;html=1;align=center;verticalAlign=middle;resizable=0;points=[];autosize=1;strokeColor=none;fillColor=none;" parent="1" vertex="1">
          <mxGeometry x="-986.58" y="14464" width="50" height="30" as="geometry" />
        </mxCell>
        <mxCell id="BASvvJVavqTpIo9RgMH1-1973" value="&lt;font style=&quot;font-size: 17px;&quot;&gt;...&lt;/font&gt;" style="rounded=0;whiteSpace=wrap;html=1;" parent="1" vertex="1">
          <mxGeometry x="-1118.0800000000002" y="14664" width="313" height="80" as="geometry" />
        </mxCell>
        <mxCell id="BASvvJVavqTpIo9RgMH1-1974" value="&lt;font style=&quot;font-size: 17px;&quot;&gt;warp_id=7&lt;/font&gt;" style="rounded=0;whiteSpace=wrap;html=1;" parent="1" vertex="1">
          <mxGeometry x="-1117.72" y="14744" width="313" height="80" as="geometry" />
        </mxCell>
        <mxCell id="BASvvJVavqTpIo9RgMH1-1975" value="" style="shape=curlyBracket;whiteSpace=wrap;html=1;rounded=1;labelPosition=left;verticalLabelPosition=middle;align=right;verticalAlign=middle;" parent="1" vertex="1">
          <mxGeometry x="-1138.0600000000002" y="14504" width="20" height="320" as="geometry" />
        </mxCell>
        <mxCell id="BASvvJVavqTpIo9RgMH1-1976" value="&lt;span style=&quot;color: rgb(51, 51, 51); font-family: &amp;quot;Open Sans&amp;quot;, &amp;quot;Clear Sans&amp;quot;, &amp;quot;Helvetica Neue&amp;quot;, Helvetica, Arial, &amp;quot;Segoe UI Emoji&amp;quot;, sans-serif; font-size: 16px; orphans: 4; text-align: left; caret-color: rgb(51, 51, 51); white-space: pre-wrap;&quot;&gt;16*MMA_M=256&lt;/span&gt;" style="text;html=1;align=center;verticalAlign=middle;resizable=0;points=[];autosize=1;strokeColor=none;fillColor=none;" parent="1" vertex="1">
          <mxGeometry x="-1273.0599999999997" y="14649" width="140" height="30" as="geometry" />
        </mxCell>
        <mxCell id="BASvvJVavqTpIo9RgMH1-1977" value="" style="whiteSpace=wrap;html=1;aspect=fixed;fillColor=#d5e8d4;strokeColor=#82b366;" parent="1" vertex="1">
          <mxGeometry x="-1117.72" y="14584" width="20" height="20" as="geometry" />
        </mxCell>
        <mxCell id="BASvvJVavqTpIo9RgMH1-1978" value="" style="endArrow=classic;html=1;rounded=0;entryX=0.5;entryY=1;entryDx=0;entryDy=0;exitX=0;exitY=1;exitDx=0;exitDy=0;" parent="1" source="BASvvJVavqTpIo9RgMH1-1961" target="BASvvJVavqTpIo9RgMH1-1960" edge="1">
          <mxGeometry width="50" height="50" relative="1" as="geometry">
            <mxPoint x="-1205.0600000000002" y="14504" as="sourcePoint" />
            <mxPoint x="-1155.0600000000002" y="14454" as="targetPoint" />
          </mxGeometry>
        </mxCell>
        <mxCell id="BASvvJVavqTpIo9RgMH1-1979" value="lane_id=0" style="rounded=0;whiteSpace=wrap;html=1;" parent="1" vertex="1">
          <mxGeometry x="-617.69" y="14640" width="70.19" height="20" as="geometry" />
        </mxCell>
        <mxCell id="BASvvJVavqTpIo9RgMH1-1983" value="..." style="rounded=0;whiteSpace=wrap;html=1;" parent="1" vertex="1">
          <mxGeometry x="-616.9300000000001" y="14600" width="280" height="40" as="geometry" />
        </mxCell>
        <mxCell id="BASvvJVavqTpIo9RgMH1-1984" value="i=0" style="rounded=0;whiteSpace=wrap;html=1;" parent="1" vertex="1">
          <mxGeometry x="-616.69" y="14560" width="280" height="40" as="geometry" />
        </mxCell>
        <mxCell id="BASvvJVavqTpIo9RgMH1-1985" value="" style="shape=curlyBracket;whiteSpace=wrap;html=1;rounded=1;flipH=1;labelPosition=right;verticalLabelPosition=middle;align=left;verticalAlign=middle;rotation=-90;" parent="1" vertex="1">
          <mxGeometry x="-486.43999999999994" y="14408.75" width="20" height="282.5" as="geometry" />
        </mxCell>
        <mxCell id="BASvvJVavqTpIo9RgMH1-1986" value="&lt;span style=&quot;color: rgb(51, 51, 51); font-family: &amp;quot;Open Sans&amp;quot;, &amp;quot;Clear Sans&amp;quot;, &amp;quot;Helvetica Neue&amp;quot;, Helvetica, Arial, &amp;quot;Segoe UI Emoji&amp;quot;, sans-serif; font-size: 16px; orphans: 4; text-align: left; caret-color: rgb(51, 51, 51); white-space: pre-wrap;&quot;&gt;128=16*int4&lt;/span&gt;" style="text;html=1;align=center;verticalAlign=middle;resizable=0;points=[];autosize=1;strokeColor=none;fillColor=none;" parent="1" vertex="1">
          <mxGeometry x="-526.6700000000001" y="14510" width="110" height="30" as="geometry" />
        </mxCell>
        <mxCell id="BASvvJVavqTpIo9RgMH1-1987" value="lane_id=16" style="rounded=0;whiteSpace=wrap;html=1;" parent="1" vertex="1">
          <mxGeometry x="-617.69" y="14660" width="70.19" height="20" as="geometry" />
        </mxCell>
        <mxCell id="BASvvJVavqTpIo9RgMH1-1988" value="lane_id=1" style="rounded=0;whiteSpace=wrap;html=1;" parent="1" vertex="1">
          <mxGeometry x="-547.5" y="14640" width="70.19" height="20" as="geometry" />
        </mxCell>
        <mxCell id="BASvvJVavqTpIo9RgMH1-1989" value="..." style="rounded=0;whiteSpace=wrap;html=1;" parent="1" vertex="1">
          <mxGeometry x="-477.30999999999983" y="14640" width="70.19" height="20" as="geometry" />
        </mxCell>
        <mxCell id="BASvvJVavqTpIo9RgMH1-1990" value="lane_id=15" style="rounded=0;whiteSpace=wrap;html=1;" parent="1" vertex="1">
          <mxGeometry x="-407.1199999999998" y="14640" width="70.19" height="20" as="geometry" />
        </mxCell>
        <mxCell id="BASvvJVavqTpIo9RgMH1-1991" value="lane_id=17" style="rounded=0;whiteSpace=wrap;html=1;" parent="1" vertex="1">
          <mxGeometry x="-547.5" y="14660" width="70.19" height="20" as="geometry" />
        </mxCell>
        <mxCell id="BASvvJVavqTpIo9RgMH1-1992" value="..." style="rounded=0;whiteSpace=wrap;html=1;" parent="1" vertex="1">
          <mxGeometry x="-477.30999999999983" y="14660" width="70.19" height="20" as="geometry" />
        </mxCell>
        <mxCell id="BASvvJVavqTpIo9RgMH1-1993" value="lane_id=31" style="rounded=0;whiteSpace=wrap;html=1;" parent="1" vertex="1">
          <mxGeometry x="-407.1199999999998" y="14660" width="70.19" height="20" as="geometry" />
        </mxCell>
        <mxCell id="BASvvJVavqTpIo9RgMH1-1994" value="" style="shape=curlyBracket;whiteSpace=wrap;html=1;rounded=1;labelPosition=left;verticalLabelPosition=middle;align=right;verticalAlign=middle;rotation=90;" parent="1" vertex="1">
          <mxGeometry x="-593.05" y="14596.82" width="20" height="66.88" as="geometry" />
        </mxCell>
        <mxCell id="BASvvJVavqTpIo9RgMH1-1996" value="" style="shape=curlyBracket;whiteSpace=wrap;html=1;rounded=1;labelPosition=left;verticalLabelPosition=middle;align=right;verticalAlign=middle;rotation=90;" parent="1" vertex="1">
          <mxGeometry x="-522.4099999999999" y="14596.82" width="20" height="66.88" as="geometry" />
        </mxCell>
        <mxCell id="BASvvJVavqTpIo9RgMH1-1997" value="" style="shape=curlyBracket;whiteSpace=wrap;html=1;rounded=1;labelPosition=left;verticalLabelPosition=middle;align=right;verticalAlign=middle;rotation=90;" parent="1" vertex="1">
          <mxGeometry x="-382.02999999999963" y="14596.82" width="20" height="66.88" as="geometry" />
        </mxCell>
        <mxCell id="BASvvJVavqTpIo9RgMH1-1999" value="&lt;span style=&quot;color: rgb(51, 51, 51); font-family: &amp;quot;Open Sans&amp;quot;, &amp;quot;Clear Sans&amp;quot;, &amp;quot;Helvetica Neue&amp;quot;, Helvetica, Arial, &amp;quot;Segoe UI Emoji&amp;quot;, sans-serif; font-size: 16px; font-style: normal; font-variant-ligatures: normal; font-variant-caps: normal; font-weight: 400; letter-spacing: normal; orphans: 4; text-align: left; text-indent: 0px; text-transform: none; widows: 2; word-spacing: 0px; -webkit-text-stroke-width: 0px; caret-color: rgb(51, 51, 51); white-space: pre-wrap; background-color: rgb(251, 251, 251); text-decoration-thickness: initial; text-decoration-style: initial; text-decoration-color: initial; display: inline !important; float: none;&quot;&gt;int4&lt;/span&gt;" style="text;whiteSpace=wrap;html=1;" parent="1" vertex="1">
          <mxGeometry x="-598.05" y="14596.82" width="30" height="30" as="geometry" />
        </mxCell>
        <mxCell id="BASvvJVavqTpIo9RgMH1-2000" value="&lt;span style=&quot;color: rgb(51, 51, 51); font-family: &amp;quot;Open Sans&amp;quot;, &amp;quot;Clear Sans&amp;quot;, &amp;quot;Helvetica Neue&amp;quot;, Helvetica, Arial, &amp;quot;Segoe UI Emoji&amp;quot;, sans-serif; font-size: 16px; font-style: normal; font-variant-ligatures: normal; font-variant-caps: normal; font-weight: 400; letter-spacing: normal; orphans: 4; text-align: left; text-indent: 0px; text-transform: none; widows: 2; word-spacing: 0px; -webkit-text-stroke-width: 0px; caret-color: rgb(51, 51, 51); white-space: pre-wrap; background-color: rgb(251, 251, 251); text-decoration-thickness: initial; text-decoration-style: initial; text-decoration-color: initial; display: inline !important; float: none;&quot;&gt;int4&lt;/span&gt;" style="text;whiteSpace=wrap;html=1;" parent="1" vertex="1">
          <mxGeometry x="-527.69" y="14596.82" width="30" height="30" as="geometry" />
        </mxCell>
        <mxCell id="BASvvJVavqTpIo9RgMH1-2001" value="&lt;span style=&quot;color: rgb(51, 51, 51); font-family: &amp;quot;Open Sans&amp;quot;, &amp;quot;Clear Sans&amp;quot;, &amp;quot;Helvetica Neue&amp;quot;, Helvetica, Arial, &amp;quot;Segoe UI Emoji&amp;quot;, sans-serif; font-size: 16px; font-style: normal; font-variant-ligatures: normal; font-variant-caps: normal; font-weight: 400; letter-spacing: normal; orphans: 4; text-align: left; text-indent: 0px; text-transform: none; widows: 2; word-spacing: 0px; -webkit-text-stroke-width: 0px; caret-color: rgb(51, 51, 51); white-space: pre-wrap; background-color: rgb(251, 251, 251); text-decoration-thickness: initial; text-decoration-style: initial; text-decoration-color: initial; display: inline !important; float: none;&quot;&gt;int4&lt;/span&gt;" style="text;whiteSpace=wrap;html=1;" parent="1" vertex="1">
          <mxGeometry x="-382.02999999999986" y="14596.82" width="30" height="30" as="geometry" />
        </mxCell>
        <mxCell id="BASvvJVavqTpIo9RgMH1-2003" value="..." style="rounded=0;whiteSpace=wrap;html=1;" parent="1" vertex="1">
          <mxGeometry x="-617.19" y="14680" width="280" height="40" as="geometry" />
        </mxCell>
        <mxCell id="BASvvJVavqTpIo9RgMH1-2004" value="i=15" style="rounded=0;whiteSpace=wrap;html=1;" parent="1" vertex="1">
          <mxGeometry x="-617.44" y="14720" width="280" height="40" as="geometry" />
        </mxCell>
        <mxCell id="BASvvJVavqTpIo9RgMH1-2005" value="" style="shape=curlyBracket;whiteSpace=wrap;html=1;rounded=1;flipH=1;labelPosition=right;verticalLabelPosition=middle;align=left;verticalAlign=middle;" parent="1" vertex="1">
          <mxGeometry x="-337.66999999999996" y="14641" width="20" height="38.75" as="geometry" />
        </mxCell>
        <mxCell id="BASvvJVavqTpIo9RgMH1-2009" value="i=(0,1,...,15)" style="text;html=1;align=center;verticalAlign=middle;resizable=0;points=[];autosize=1;strokeColor=none;fillColor=none;" parent="1" vertex="1">
          <mxGeometry x="-325.69999999999993" y="14645.38" width="90" height="30" as="geometry" />
        </mxCell>
        <mxCell id="BASvvJVavqTpIo9RgMH1-2010" value="" style="rounded=0;whiteSpace=wrap;html=1;" parent="1" vertex="1">
          <mxGeometry x="-1635.92" y="15025.72" width="195" height="210" as="geometry" />
        </mxCell>
        <mxCell id="BASvvJVavqTpIo9RgMH1-2011" value="block" style="rounded=0;whiteSpace=wrap;html=1;fillColor=#d80073;fontColor=#ffffff;strokeColor=#A50040;" parent="1" vertex="1">
          <mxGeometry x="-1531.0800000000002" y="15100.72" width="40" height="65" as="geometry" />
        </mxCell>
        <mxCell id="BASvvJVavqTpIo9RgMH1-2014" value="&lt;font style=&quot;font-size: 17px;&quot;&gt;warp_id=0&lt;/font&gt;" style="rounded=0;whiteSpace=wrap;html=1;" parent="1" vertex="1">
          <mxGeometry x="-1113.2900000000002" y="15024" width="313" height="80" as="geometry" />
        </mxCell>
        <mxCell id="BASvvJVavqTpIo9RgMH1-2015" value="&lt;font style=&quot;font-size: 17px;&quot;&gt;warp_id=1&lt;/font&gt;" style="rounded=0;whiteSpace=wrap;html=1;fillColor=#f8cecc;strokeColor=#b85450;" parent="1" vertex="1">
          <mxGeometry x="-1112.95" y="15104" width="313" height="80" as="geometry" />
        </mxCell>
        <mxCell id="BASvvJVavqTpIo9RgMH1-2016" value="" style="shape=curlyBracket;whiteSpace=wrap;html=1;rounded=1;flipH=1;labelPosition=right;verticalLabelPosition=middle;align=left;verticalAlign=middle;" parent="1" vertex="1">
          <mxGeometry x="-799.9500000000002" y="15104" width="20" height="80" as="geometry" />
        </mxCell>
        <mxCell id="BASvvJVavqTpIo9RgMH1-2017" value="&lt;span style=&quot;color: rgb(51, 51, 51); font-family: &amp;quot;Open Sans&amp;quot;, &amp;quot;Clear Sans&amp;quot;, &amp;quot;Helvetica Neue&amp;quot;, Helvetica, Arial, &amp;quot;Segoe UI Emoji&amp;quot;, sans-serif; font-size: 16px; orphans: 4; text-align: left; caret-color: rgb(51, 51, 51); white-space: pre-wrap;&quot;&gt;2*MMA_M=32&lt;/span&gt;" style="text;html=1;align=center;verticalAlign=middle;resizable=0;points=[];autosize=1;strokeColor=none;fillColor=none;" parent="1" vertex="1">
          <mxGeometry x="-788.4300000000001" y="15129" width="130" height="30" as="geometry" />
        </mxCell>
        <mxCell id="BASvvJVavqTpIo9RgMH1-2018" value="" style="shape=curlyBracket;whiteSpace=wrap;html=1;rounded=1;flipH=1;labelPosition=right;verticalLabelPosition=middle;align=left;verticalAlign=middle;rotation=-90;" parent="1" vertex="1">
          <mxGeometry x="-966.45" y="14860" width="20" height="310" as="geometry" />
        </mxCell>
        <mxCell id="BASvvJVavqTpIo9RgMH1-2019" value="&lt;span style=&quot;color: rgb(51, 51, 51); font-family: &amp;quot;Open Sans&amp;quot;, &amp;quot;Clear Sans&amp;quot;, &amp;quot;Helvetica Neue&amp;quot;, Helvetica, Arial, &amp;quot;Segoe UI Emoji&amp;quot;, sans-serif; font-size: 16px; orphans: 4; text-align: left; caret-color: rgb(51, 51, 51); white-space: pre-wrap;&quot;&gt;128&lt;/span&gt;" style="text;html=1;align=center;verticalAlign=middle;resizable=0;points=[];autosize=1;strokeColor=none;fillColor=none;" parent="1" vertex="1">
          <mxGeometry x="-981.4500000000002" y="14985" width="50" height="30" as="geometry" />
        </mxCell>
        <mxCell id="BASvvJVavqTpIo9RgMH1-2020" value="&lt;font style=&quot;font-size: 17px;&quot;&gt;...&lt;/font&gt;" style="rounded=0;whiteSpace=wrap;html=1;" parent="1" vertex="1">
          <mxGeometry x="-1113.3100000000002" y="15184" width="313" height="80" as="geometry" />
        </mxCell>
        <mxCell id="BASvvJVavqTpIo9RgMH1-2021" value="&lt;font style=&quot;font-size: 17px;&quot;&gt;warp_id=7&lt;/font&gt;" style="rounded=0;whiteSpace=wrap;html=1;" parent="1" vertex="1">
          <mxGeometry x="-1112.95" y="15264" width="313" height="80" as="geometry" />
        </mxCell>
        <mxCell id="BASvvJVavqTpIo9RgMH1-2022" value="" style="shape=curlyBracket;whiteSpace=wrap;html=1;rounded=1;labelPosition=left;verticalLabelPosition=middle;align=right;verticalAlign=middle;" parent="1" vertex="1">
          <mxGeometry x="-1133.2900000000002" y="15024" width="20" height="320" as="geometry" />
        </mxCell>
        <mxCell id="BASvvJVavqTpIo9RgMH1-2023" value="&lt;span style=&quot;color: rgb(51, 51, 51); font-family: &amp;quot;Open Sans&amp;quot;, &amp;quot;Clear Sans&amp;quot;, &amp;quot;Helvetica Neue&amp;quot;, Helvetica, Arial, &amp;quot;Segoe UI Emoji&amp;quot;, sans-serif; font-size: 16px; orphans: 4; text-align: left; caret-color: rgb(51, 51, 51); white-space: pre-wrap;&quot;&gt;16*MMA_M=256&lt;/span&gt;" style="text;html=1;align=center;verticalAlign=middle;resizable=0;points=[];autosize=1;strokeColor=none;fillColor=none;" parent="1" vertex="1">
          <mxGeometry x="-1268.2899999999997" y="15169" width="140" height="30" as="geometry" />
        </mxCell>
        <mxCell id="BASvvJVavqTpIo9RgMH1-2024" value="" style="whiteSpace=wrap;html=1;aspect=fixed;fillColor=#d5e8d4;strokeColor=#82b366;" parent="1" vertex="1">
          <mxGeometry x="-1112.95" y="15104" width="20" height="20" as="geometry" />
        </mxCell>
        <mxCell id="BASvvJVavqTpIo9RgMH1-2025" value="" style="shape=curlyBracket;whiteSpace=wrap;html=1;rounded=1;flipH=1;labelPosition=right;verticalLabelPosition=middle;align=left;verticalAlign=middle;" parent="1" vertex="1">
          <mxGeometry x="-1490.92" y="15100.72" width="20" height="65" as="geometry" />
        </mxCell>
        <mxCell id="BASvvJVavqTpIo9RgMH1-2026" value="256" style="text;html=1;align=center;verticalAlign=middle;resizable=0;points=[];autosize=1;strokeColor=none;fillColor=none;" parent="1" vertex="1">
          <mxGeometry x="-1479.45" y="15118.22" width="40" height="30" as="geometry" />
        </mxCell>
        <mxCell id="BASvvJVavqTpIo9RgMH1-2027" value="" style="shape=curlyBracket;whiteSpace=wrap;html=1;rounded=1;labelPosition=left;verticalLabelPosition=middle;align=right;verticalAlign=middle;rotation=90;" parent="1" vertex="1">
          <mxGeometry x="-1520.91" y="15071.72" width="20" height="39" as="geometry" />
        </mxCell>
        <mxCell id="BASvvJVavqTpIo9RgMH1-2028" value="128" style="text;html=1;align=center;verticalAlign=middle;resizable=0;points=[];autosize=1;strokeColor=none;fillColor=none;" parent="1" vertex="1">
          <mxGeometry x="-1531.0800000000002" y="15059.72" width="40" height="30" as="geometry" />
        </mxCell>
        <mxCell id="BASvvJVavqTpIo9RgMH1-2029" value="&lt;div&gt;&lt;font color=&quot;#cc0000&quot; style=&quot;font-size: 21px;&quot;&gt;&lt;b&gt;shared memory&lt;/b&gt;&lt;/font&gt;&lt;/div&gt;" style="shape=hexagon;perimeter=hexagonPerimeter2;whiteSpace=wrap;html=1;fixedSize=1;" parent="1" vertex="1">
          <mxGeometry x="-1628.9" y="14597.82" width="189.45" height="80" as="geometry" />
        </mxCell>
        <mxCell id="BASvvJVavqTpIo9RgMH1-2030" value="" style="curved=1;endArrow=classic;html=1;rounded=0;exitX=1;exitY=0.5;exitDx=0;exitDy=0;entryX=0;entryY=1;entryDx=0;entryDy=0;" parent="1" source="BASvvJVavqTpIo9RgMH1-1968" target="BASvvJVavqTpIo9RgMH1-1984" edge="1">
          <mxGeometry width="50" height="50" relative="1" as="geometry">
            <mxPoint x="-638.69" y="14430" as="sourcePoint" />
            <mxPoint x="-588.69" y="14380" as="targetPoint" />
            <Array as="points">
              <mxPoint x="-794.69" y="14580" />
              <mxPoint x="-678.69" y="14530" />
            </Array>
          </mxGeometry>
        </mxCell>
        <mxCell id="BASvvJVavqTpIo9RgMH1-2031" value="&lt;span style=&quot;caret-color: rgb(51, 51, 51); color: rgb(51, 51, 51); font-family: &amp;quot;Open Sans&amp;quot;, &amp;quot;Clear Sans&amp;quot;, &amp;quot;Helvetica Neue&amp;quot;, Helvetica, Arial, &amp;quot;Segoe UI Emoji&amp;quot;, sans-serif; font-size: 16px; orphans: 4; white-space-collapse: preserve; text-size-adjust: auto; background-color: rgb(255, 255, 255);&quot;&gt;const size_t gmem_idx = (block_tile_i + warp_id * 2) * MMA_M * N + block_tile_j * MMA_N;&lt;/span&gt;&lt;div&gt;&lt;div style=&quot;orphans: 4;&quot;&gt;&lt;span style=&quot;caret-color: rgb(51, 51, 51); color: rgb(51, 51, 51); font-family: &amp;quot;Open Sans&amp;quot;, &amp;quot;Clear Sans&amp;quot;, &amp;quot;Helvetica Neue&amp;quot;, Helvetica, Arial, &amp;quot;Segoe UI Emoji&amp;quot;, sans-serif; font-size: 16px; white-space-collapse: preserve; text-size-adjust: auto; background-color: rgb(255, 255, 255);&quot;&gt;const half *src_gmem_warp_stream_ptr = &amp;amp;C[gmem_idx];&lt;/span&gt;&lt;font face=&quot;Open Sans, Clear Sans, Helvetica Neue, Helvetica, Arial, Segoe UI Emoji, sans-serif&quot; color=&quot;#333333&quot;&gt;&lt;span style=&quot;font-size: 16px; caret-color: rgb(51, 51, 51); white-space-collapse: preserve;&quot;&gt;&lt;br&gt;&lt;/span&gt;&lt;/font&gt;&lt;/div&gt;&lt;div&gt;&lt;span style=&quot;caret-color: rgb(51, 51, 51); color: rgb(51, 51, 51); font-family: &amp;quot;Open Sans&amp;quot;, &amp;quot;Clear Sans&amp;quot;, &amp;quot;Helvetica Neue&amp;quot;, Helvetica, Arial, &amp;quot;Segoe UI Emoji&amp;quot;, sans-serif; font-size: 16px; orphans: 4; white-space-collapse: preserve; text-size-adjust: auto; background-color: rgb(255, 255, 255);&quot;&gt;(warp_id=1)&lt;/span&gt;&lt;/div&gt;&lt;/div&gt;" style="rounded=1;whiteSpace=wrap;html=1;align=left;" parent="1" vertex="1">
          <mxGeometry x="-1345.54" y="14890" width="680.7" height="80" as="geometry" />
        </mxCell>
        <mxCell id="BASvvJVavqTpIo9RgMH1-2032" value="" style="endArrow=classic;html=1;rounded=0;entryX=0.5;entryY=1;entryDx=0;entryDy=0;exitX=0;exitY=1;exitDx=0;exitDy=0;" parent="1" source="BASvvJVavqTpIo9RgMH1-2014" target="BASvvJVavqTpIo9RgMH1-2031" edge="1">
          <mxGeometry width="50" height="50" relative="1" as="geometry">
            <mxPoint x="-1108" y="14594" as="sourcePoint" />
            <mxPoint x="-982" y="14410" as="targetPoint" />
          </mxGeometry>
        </mxCell>
        <mxCell id="BASvvJVavqTpIo9RgMH1-2033" value="*((&lt;b style=&quot;color: rgb(255, 51, 51);&quot;&gt;int4 *&lt;/b&gt;)(src_gmem_warp_stream_ptr + (i * 2 + lane_id / 16) * N) + lane_id % 16)&lt;div&gt;(lane_id=1)&lt;/div&gt;" style="rounded=1;whiteSpace=wrap;html=1;" parent="1" vertex="1">
          <mxGeometry x="-745.9" y="14985" width="467" height="44" as="geometry" />
        </mxCell>
        <mxCell id="BASvvJVavqTpIo9RgMH1-2034" value="" style="whiteSpace=wrap;html=1;aspect=fixed;fillColor=#d5e8d4;strokeColor=#82b366;" parent="1" vertex="1">
          <mxGeometry x="-547.5" y="14640" width="11" height="11" as="geometry" />
        </mxCell>
        <mxCell id="BASvvJVavqTpIo9RgMH1-2037" value="lane_id=0" style="rounded=0;whiteSpace=wrap;html=1;" parent="1" vertex="1">
          <mxGeometry x="-639" y="15169.62" width="70.19" height="20" as="geometry" />
        </mxCell>
        <mxCell id="BASvvJVavqTpIo9RgMH1-2038" value="..." style="rounded=0;whiteSpace=wrap;html=1;" parent="1" vertex="1">
          <mxGeometry x="-638.24" y="15129.62" width="280" height="40" as="geometry" />
        </mxCell>
        <mxCell id="BASvvJVavqTpIo9RgMH1-2039" value="i=0" style="rounded=0;whiteSpace=wrap;html=1;" parent="1" vertex="1">
          <mxGeometry x="-638" y="15089.62" width="280" height="40" as="geometry" />
        </mxCell>
        <mxCell id="BASvvJVavqTpIo9RgMH1-2040" value="" style="shape=curlyBracket;whiteSpace=wrap;html=1;rounded=1;flipH=1;labelPosition=right;verticalLabelPosition=middle;align=left;verticalAlign=middle;rotation=-90;" parent="1" vertex="1">
          <mxGeometry x="-507.74999999999994" y="14938.37" width="20" height="282.5" as="geometry" />
        </mxCell>
        <mxCell id="BASvvJVavqTpIo9RgMH1-2041" value="lane_id=16" style="rounded=0;whiteSpace=wrap;html=1;" parent="1" vertex="1">
          <mxGeometry x="-639" y="15189.62" width="70.19" height="20" as="geometry" />
        </mxCell>
        <mxCell id="BASvvJVavqTpIo9RgMH1-2042" value="lane_id=1" style="rounded=0;whiteSpace=wrap;html=1;" parent="1" vertex="1">
          <mxGeometry x="-568.81" y="15169.62" width="70.19" height="20" as="geometry" />
        </mxCell>
        <mxCell id="BASvvJVavqTpIo9RgMH1-2043" value="..." style="rounded=0;whiteSpace=wrap;html=1;" parent="1" vertex="1">
          <mxGeometry x="-498.61999999999983" y="15169.62" width="70.19" height="20" as="geometry" />
        </mxCell>
        <mxCell id="BASvvJVavqTpIo9RgMH1-2044" value="lane_id=15" style="rounded=0;whiteSpace=wrap;html=1;" parent="1" vertex="1">
          <mxGeometry x="-428.4299999999998" y="15169.62" width="70.19" height="20" as="geometry" />
        </mxCell>
        <mxCell id="BASvvJVavqTpIo9RgMH1-2045" value="lane_id=17" style="rounded=0;whiteSpace=wrap;html=1;" parent="1" vertex="1">
          <mxGeometry x="-568.81" y="15189.62" width="70.19" height="20" as="geometry" />
        </mxCell>
        <mxCell id="BASvvJVavqTpIo9RgMH1-2046" value="..." style="rounded=0;whiteSpace=wrap;html=1;" parent="1" vertex="1">
          <mxGeometry x="-498.61999999999983" y="15189.62" width="70.19" height="20" as="geometry" />
        </mxCell>
        <mxCell id="BASvvJVavqTpIo9RgMH1-2047" value="lane_id=31" style="rounded=0;whiteSpace=wrap;html=1;" parent="1" vertex="1">
          <mxGeometry x="-428.4299999999998" y="15189.62" width="70.19" height="20" as="geometry" />
        </mxCell>
        <mxCell id="BASvvJVavqTpIo9RgMH1-2048" value="" style="shape=curlyBracket;whiteSpace=wrap;html=1;rounded=1;labelPosition=left;verticalLabelPosition=middle;align=right;verticalAlign=middle;rotation=90;" parent="1" vertex="1">
          <mxGeometry x="-614.3599999999999" y="15126.44" width="20" height="66.88" as="geometry" />
        </mxCell>
        <mxCell id="BASvvJVavqTpIo9RgMH1-2049" value="" style="shape=curlyBracket;whiteSpace=wrap;html=1;rounded=1;labelPosition=left;verticalLabelPosition=middle;align=right;verticalAlign=middle;rotation=90;" parent="1" vertex="1">
          <mxGeometry x="-543.7199999999998" y="15126.44" width="20" height="66.88" as="geometry" />
        </mxCell>
        <mxCell id="BASvvJVavqTpIo9RgMH1-2050" value="" style="shape=curlyBracket;whiteSpace=wrap;html=1;rounded=1;labelPosition=left;verticalLabelPosition=middle;align=right;verticalAlign=middle;rotation=90;" parent="1" vertex="1">
          <mxGeometry x="-403.33999999999963" y="15126.44" width="20" height="66.88" as="geometry" />
        </mxCell>
        <mxCell id="BASvvJVavqTpIo9RgMH1-2051" value="&lt;span style=&quot;color: rgb(51, 51, 51); font-family: &amp;quot;Open Sans&amp;quot;, &amp;quot;Clear Sans&amp;quot;, &amp;quot;Helvetica Neue&amp;quot;, Helvetica, Arial, &amp;quot;Segoe UI Emoji&amp;quot;, sans-serif; font-size: 16px; font-style: normal; font-variant-ligatures: normal; font-variant-caps: normal; font-weight: 400; letter-spacing: normal; orphans: 4; text-align: left; text-indent: 0px; text-transform: none; widows: 2; word-spacing: 0px; -webkit-text-stroke-width: 0px; caret-color: rgb(51, 51, 51); white-space: pre-wrap; background-color: rgb(251, 251, 251); text-decoration-thickness: initial; text-decoration-style: initial; text-decoration-color: initial; display: inline !important; float: none;&quot;&gt;int4&lt;/span&gt;" style="text;whiteSpace=wrap;html=1;" parent="1" vertex="1">
          <mxGeometry x="-619.3599999999999" y="15126.44" width="30" height="30" as="geometry" />
        </mxCell>
        <mxCell id="BASvvJVavqTpIo9RgMH1-2052" value="&lt;span style=&quot;color: rgb(51, 51, 51); font-family: &amp;quot;Open Sans&amp;quot;, &amp;quot;Clear Sans&amp;quot;, &amp;quot;Helvetica Neue&amp;quot;, Helvetica, Arial, &amp;quot;Segoe UI Emoji&amp;quot;, sans-serif; font-size: 16px; font-style: normal; font-variant-ligatures: normal; font-variant-caps: normal; font-weight: 400; letter-spacing: normal; orphans: 4; text-align: left; text-indent: 0px; text-transform: none; widows: 2; word-spacing: 0px; -webkit-text-stroke-width: 0px; caret-color: rgb(51, 51, 51); white-space: pre-wrap; background-color: rgb(251, 251, 251); text-decoration-thickness: initial; text-decoration-style: initial; text-decoration-color: initial; display: inline !important; float: none;&quot;&gt;int4&lt;/span&gt;" style="text;whiteSpace=wrap;html=1;" parent="1" vertex="1">
          <mxGeometry x="-549" y="15126.44" width="30" height="30" as="geometry" />
        </mxCell>
        <mxCell id="BASvvJVavqTpIo9RgMH1-2053" value="&lt;span style=&quot;color: rgb(51, 51, 51); font-family: &amp;quot;Open Sans&amp;quot;, &amp;quot;Clear Sans&amp;quot;, &amp;quot;Helvetica Neue&amp;quot;, Helvetica, Arial, &amp;quot;Segoe UI Emoji&amp;quot;, sans-serif; font-size: 16px; font-style: normal; font-variant-ligatures: normal; font-variant-caps: normal; font-weight: 400; letter-spacing: normal; orphans: 4; text-align: left; text-indent: 0px; text-transform: none; widows: 2; word-spacing: 0px; -webkit-text-stroke-width: 0px; caret-color: rgb(51, 51, 51); white-space: pre-wrap; background-color: rgb(251, 251, 251); text-decoration-thickness: initial; text-decoration-style: initial; text-decoration-color: initial; display: inline !important; float: none;&quot;&gt;int4&lt;/span&gt;" style="text;whiteSpace=wrap;html=1;" parent="1" vertex="1">
          <mxGeometry x="-403.33999999999986" y="15126.44" width="30" height="30" as="geometry" />
        </mxCell>
        <mxCell id="BASvvJVavqTpIo9RgMH1-2054" value="..." style="rounded=0;whiteSpace=wrap;html=1;" parent="1" vertex="1">
          <mxGeometry x="-638.5" y="15209.62" width="280" height="40" as="geometry" />
        </mxCell>
        <mxCell id="BASvvJVavqTpIo9RgMH1-2055" value="i=15" style="rounded=0;whiteSpace=wrap;html=1;" parent="1" vertex="1">
          <mxGeometry x="-638.75" y="15249.62" width="280" height="40" as="geometry" />
        </mxCell>
        <mxCell id="BASvvJVavqTpIo9RgMH1-2056" value="" style="shape=curlyBracket;whiteSpace=wrap;html=1;rounded=1;flipH=1;labelPosition=right;verticalLabelPosition=middle;align=left;verticalAlign=middle;" parent="1" vertex="1">
          <mxGeometry x="-358.97999999999996" y="15170.62" width="20" height="38.75" as="geometry" />
        </mxCell>
        <mxCell id="BASvvJVavqTpIo9RgMH1-2057" value="i=(0,1,...,15)" style="text;html=1;align=center;verticalAlign=middle;resizable=0;points=[];autosize=1;strokeColor=none;fillColor=none;" parent="1" vertex="1">
          <mxGeometry x="-347.00999999999993" y="15175" width="90" height="30" as="geometry" />
        </mxCell>
        <mxCell id="BASvvJVavqTpIo9RgMH1-2058" value="" style="whiteSpace=wrap;html=1;aspect=fixed;fillColor=#d5e8d4;strokeColor=#82b366;" parent="1" vertex="1">
          <mxGeometry x="-568.81" y="15169.62" width="11" height="11" as="geometry" />
        </mxCell>
        <mxCell id="BASvvJVavqTpIo9RgMH1-2059" value="&lt;span style=&quot;color: rgb(51, 51, 51); font-family: &amp;quot;Open Sans&amp;quot;, &amp;quot;Clear Sans&amp;quot;, &amp;quot;Helvetica Neue&amp;quot;, Helvetica, Arial, &amp;quot;Segoe UI Emoji&amp;quot;, sans-serif; font-size: 16px; orphans: 4; text-align: left; caret-color: rgb(51, 51, 51); white-space: pre-wrap;&quot;&gt;128=16*int4&lt;/span&gt;" style="text;html=1;align=center;verticalAlign=middle;resizable=0;points=[];autosize=1;strokeColor=none;fillColor=none;" parent="1" vertex="1">
          <mxGeometry x="-549.0000000000001" y="15040" width="110" height="30" as="geometry" />
        </mxCell>
        <mxCell id="BASvvJVavqTpIo9RgMH1-2060" value="&lt;div&gt;*((&lt;b&gt;&lt;font color=&quot;#ff3333&quot;&gt;int4 *&lt;/font&gt;&lt;/b&gt;)(smem_warp_stream_ptr + (i * 2 + lane_id / 16) * C_SMEM_STRIDE) + lane_id % 16)&lt;/div&gt;&lt;div&gt;(lane_id=1)&lt;/div&gt;" style="rounded=1;whiteSpace=wrap;html=1;" parent="1" vertex="1">
          <mxGeometry x="-776.76" y="14430" width="519.75" height="44" as="geometry" />
        </mxCell>
        <mxCell id="BASvvJVavqTpIo9RgMH1-2064" style="edgeStyle=orthogonalEdgeStyle;rounded=0;orthogonalLoop=1;jettySize=auto;html=1;entryX=0.002;entryY=0.589;entryDx=0;entryDy=0;entryPerimeter=0;" parent="1" source="BASvvJVavqTpIo9RgMH1-2029" target="BASvvJVavqTpIo9RgMH1-2062" edge="1">
          <mxGeometry relative="1" as="geometry" />
        </mxCell>
        <mxCell id="BASvvJVavqTpIo9RgMH1-2065" value="" style="curved=1;endArrow=classic;html=1;rounded=0;exitX=1;exitY=0;exitDx=0;exitDy=0;entryX=0;entryY=0.5;entryDx=0;entryDy=0;" parent="1" source="BASvvJVavqTpIo9RgMH1-2011" target="BASvvJVavqTpIo9RgMH1-2063" edge="1">
          <mxGeometry width="50" height="50" relative="1" as="geometry">
            <mxPoint x="-1550" y="14930" as="sourcePoint" />
            <mxPoint x="-1500" y="14880" as="targetPoint" />
            <Array as="points">
              <mxPoint x="-1450" y="15060" />
            </Array>
          </mxGeometry>
        </mxCell>
        <mxCell id="BASvvJVavqTpIo9RgMH1-2067" style="edgeStyle=orthogonalEdgeStyle;rounded=0;orthogonalLoop=1;jettySize=auto;html=1;entryX=0.5;entryY=0;entryDx=0;entryDy=0;" parent="1" source="BASvvJVavqTpIo9RgMH1-2066" target="BASvvJVavqTpIo9RgMH1-2010" edge="1">
          <mxGeometry relative="1" as="geometry" />
        </mxCell>
        <mxCell id="BASvvJVavqTpIo9RgMH1-2066" value="&lt;div&gt;&lt;font color=&quot;#cc0000&quot; style=&quot;font-size: 21px;&quot;&gt;&lt;b&gt;Matrix C&lt;/b&gt;&lt;/font&gt;&lt;/div&gt;" style="shape=hexagon;perimeter=hexagonPerimeter2;whiteSpace=wrap;html=1;fixedSize=1;" parent="1" vertex="1">
          <mxGeometry x="-1633.15" y="14900" width="189.45" height="80" as="geometry" />
        </mxCell>
        <mxCell id="BASvvJVavqTpIo9RgMH1-2068" value="" style="curved=1;endArrow=classic;html=1;rounded=0;exitX=1;exitY=0.5;exitDx=0;exitDy=0;entryX=1;entryY=0.5;entryDx=0;entryDy=0;" parent="1" source="BASvvJVavqTpIo9RgMH1-2062" target="BASvvJVavqTpIo9RgMH1-2063" edge="1">
          <mxGeometry width="50" height="50" relative="1" as="geometry">
            <mxPoint x="-90" y="14600" as="sourcePoint" />
            <mxPoint x="-120" y="14780" as="targetPoint" />
            <Array as="points">
              <mxPoint x="-40" y="14860" />
            </Array>
          </mxGeometry>
        </mxCell>
        <mxCell id="BASvvJVavqTpIo9RgMH1-2070" value="&lt;font style=&quot;font-size: 24px;&quot;&gt;&lt;b&gt;assgin&lt;/b&gt;&lt;/font&gt;" style="edgeLabel;html=1;align=center;verticalAlign=middle;resizable=0;points=[];" parent="BASvvJVavqTpIo9RgMH1-2068" vertex="1" connectable="0">
          <mxGeometry x="-0.1558" y="-54" relative="1" as="geometry">
            <mxPoint as="offset" />
          </mxGeometry>
        </mxCell>
        <mxCell id="BASvvJVavqTpIo9RgMH1-2069" value="" style="curved=1;endArrow=classic;html=1;rounded=0;exitX=0.9;exitY=0.5;exitDx=0;exitDy=0;entryX=0;entryY=1;entryDx=0;entryDy=0;exitPerimeter=0;" parent="1" source="BASvvJVavqTpIo9RgMH1-2016" target="BASvvJVavqTpIo9RgMH1-2039" edge="1">
          <mxGeometry width="50" height="50" relative="1" as="geometry">
            <mxPoint x="-800.29" y="15148.22" as="sourcePoint" />
            <mxPoint x="-612.29" y="15124.22" as="targetPoint" />
            <Array as="points">
              <mxPoint x="-789.98" y="15104.22" />
              <mxPoint x="-673.98" y="15054.22" />
            </Array>
          </mxGeometry>
        </mxCell>
        <mxCell id="R3JpHnB4mjBOynfH0rHO-1" value="" style="endArrow=classic;html=1;rounded=0;exitX=0.25;exitY=1;exitDx=0;exitDy=0;entryX=0.25;entryY=1;entryDx=0;entryDy=0;" edge="1" parent="1" source="BASvvJVavqTpIo9RgMH1-1983" target="BASvvJVavqTpIo9RgMH1-2060">
          <mxGeometry width="50" height="50" relative="1" as="geometry">
            <mxPoint x="-710" y="14540" as="sourcePoint" />
            <mxPoint x="-660" y="14490" as="targetPoint" />
          </mxGeometry>
        </mxCell>
        <mxCell id="R3JpHnB4mjBOynfH0rHO-2" value="" style="endArrow=classic;html=1;rounded=0;exitX=0.25;exitY=0;exitDx=0;exitDy=0;entryX=0.25;entryY=1;entryDx=0;entryDy=0;" edge="1" parent="1" source="BASvvJVavqTpIo9RgMH1-2058" target="BASvvJVavqTpIo9RgMH1-2033">
          <mxGeometry width="50" height="50" relative="1" as="geometry">
            <mxPoint x="-650" y="14880" as="sourcePoint" />
            <mxPoint x="-600" y="14830" as="targetPoint" />
          </mxGeometry>
        </mxCell>
      </root>
    </mxGraphModel>
  </diagram>
</mxfile>
